<?xml version="1.0" encoding="UTF-8"?>
<svg width="155px" height="40px" viewBox="0 0 155 40" version="1.1" xmlns="http://www.w3.org/2000/svg" xmlns:xlink="http://www.w3.org/1999/xlink">
    <!-- Generator: Sketch 59.1 (86144) - https://sketch.com -->
    <title>Boyd &amp; Moore</title>
    <desc>Created with Sketch.</desc>
    <defs>
        <linearGradient x1="99.6153678%" y1="95.599346%" x2="-0.22119891%" y2="3.84501362%" id="linearGradient-1">
            <stop stop-color="#704C9F" offset="0%"></stop>
            <stop stop-color="#1CADB4" offset="100%"></stop>
        </linearGradient>
    </defs>
    <g id="Boyd-&amp;-Moore" stroke="none" stroke-width="1" fill="none" fill-rule="evenodd">
        <g id="BMES_logo_single_cmyk" transform="translate(0.000000, 5.000000)" fill-rule="nonzero">
            <g id="Group" transform="translate(43.043478, 4.076087)" fill="#445664">
                <path d="M8.13586957,7.98913043 C8.13586957,8.41304348 8.05434783,8.77173913 7.875,9.11413043 C7.71195652,9.44021739 7.48369565,9.7173913 7.19021739,9.94565217 C6.89673913,10.173913 6.57065217,10.3532609 6.17934783,10.4673913 C5.78804348,10.5815217 5.38043478,10.6467391 4.94021739,10.6467391 L0.0163043478,10.6467391 L0.0163043478,0.342391304 L5.33152174,0.342391304 C5.69021739,0.342391304 6.01630435,0.423913043 6.30978261,0.570652174 C6.60326087,0.717391304 6.84782609,0.929347826 7.04347826,1.17391304 C7.23913043,1.41847826 7.40217391,1.69565217 7.51630435,2.02173913 C7.63043478,2.33152174 7.67934783,2.6576087 7.67934783,2.9673913 C7.67934783,3.47282609 7.54891304,3.94565217 7.28804348,4.38586957 C7.02717391,4.82608696 6.66847826,5.15217391 6.19565217,5.36413043 C6.7826087,5.54347826 7.25543478,5.85326087 7.59782609,6.30978261 C7.95652174,6.7826087 8.13586957,7.33695652 8.13586957,7.98913043 Z M1.66304348,1.76086957 L1.66304348,4.79347826 L4.64673913,4.79347826 C4.8423913,4.79347826 5.03804348,4.76086957 5.20108696,4.67934783 C5.36413043,4.59782609 5.52717391,4.5 5.6576087,4.36956522 C5.78804348,4.23913043 5.88586957,4.07608696 5.9673913,3.89673913 C6.0326087,3.7173913 6.08152174,3.50543478 6.08152174,3.29347826 C6.08152174,2.85326087 5.95108696,2.47826087 5.70652174,2.20108696 C5.46195652,1.9076087 5.13586957,1.77717391 4.74456522,1.77717391 L1.66304348,1.77717391 L1.66304348,1.76086957 Z M6.47282609,7.69565217 C6.47282609,7.48369565 6.44021739,7.28804348 6.35869565,7.0923913 C6.29347826,6.89673913 6.19565217,6.73369565 6.06521739,6.58695652 C5.95108696,6.44021739 5.80434783,6.32608696 5.625,6.24456522 C5.44565217,6.16304348 5.26630435,6.11413043 5.05434783,6.11413043 L1.66304348,6.11413043 L1.66304348,9.26086957 L4.95652174,9.26086957 C5.16847826,9.26086957 5.36413043,9.21195652 5.54347826,9.13043478 C5.72282609,9.04891304 5.88586957,8.93478261 6.01630435,8.80434783 C6.14673913,8.6576087 6.26086957,8.49456522 6.3423913,8.31521739 C6.42391304,8.10326087 6.47282609,7.9076087 6.47282609,7.69565217 Z" id="Shape"></path>
                <path d="M14.7228261,10.6467391 C13.9891304,10.6467391 13.3206522,10.5 12.7336957,10.2065217 C12.1304348,9.91304348 11.625,9.52173913 11.1847826,9.01630435 C10.7445652,8.52717391 10.4184783,7.95652174 10.1902174,7.33695652 C9.96195652,6.70108696 9.84782609,6.04891304 9.84782609,5.39673913 C9.84782609,4.71195652 9.97826087,4.04347826 10.2228261,3.4076087 C10.4673913,2.77173913 10.8097826,2.2173913 11.25,1.72826087 C11.6902174,1.23913043 12.2119565,0.847826087 12.8152174,0.570652174 C13.4184783,0.277173913 14.0706522,0.14673913 14.7880435,0.14673913 C15.5217391,0.14673913 16.1902174,0.293478261 16.7771739,0.60326087 C17.3804348,0.913043478 17.8858696,1.30434783 18.326087,1.80978261 C18.75,2.29891304 19.0923913,2.86956522 19.3206522,3.48913043 C19.548913,4.125 19.6793478,4.76086957 19.6793478,5.41304348 C19.6793478,6.09782609 19.548913,6.76630435 19.3043478,7.40217391 C19.0597826,8.03804348 18.7173913,8.5923913 18.2771739,9.08152174 C17.8369565,9.57065217 17.3152174,9.94565217 16.7282609,10.2391304 C16.0923913,10.5 15.4402174,10.6467391 14.7228261,10.6467391 Z M11.4945652,5.39673913 C11.4945652,5.88586957 11.576087,6.35869565 11.7228261,6.81521739 C11.8695652,7.27173913 12.0978261,7.67934783 12.375,8.02173913 C12.6521739,8.38043478 12.9945652,8.6576087 13.4021739,8.85326087 C13.7934783,9.06521739 14.25,9.16304348 14.7391304,9.16304348 C15.2445652,9.16304348 15.701087,9.04891304 16.1086957,8.83695652 C16.5163043,8.625 16.8586957,8.33152174 17.1358696,7.97282609 C17.4130435,7.61413043 17.625,7.20652174 17.7717391,6.76630435 C17.9184783,6.32608696 17.9836957,5.85326087 17.9836957,5.39673913 C17.9836957,4.9076087 17.9021739,4.41847826 17.7554348,3.97826087 C17.5923913,3.52173913 17.3804348,3.13043478 17.1032609,2.78804348 C16.826087,2.44565217 16.4836957,2.16847826 16.076087,1.95652174 C15.6847826,1.74456522 15.2282609,1.64673913 14.7554348,1.64673913 C14.25,1.64673913 13.7934783,1.76086957 13.3858696,1.97282609 C12.9782609,2.18478261 12.6358696,2.47826087 12.3586957,2.82065217 C12.0815217,3.17934783 11.8695652,3.57065217 11.7228261,4.02717391 C11.576087,4.4673913 11.4945652,4.92391304 11.4945652,5.39673913 Z" id="Shape"></path>
                <polygon id="Path" points="21.701087 0.342391304 24.5543478 5.51086957 27.423913 0.342391304 29.201087 0.342391304 25.3695652 6.96195652 25.3695652 10.6467391 23.7228261 10.6467391 23.7228261 6.92934783 19.9076087 0.342391304"></polygon>
                <path d="M30.9782609,10.6467391 L30.9782609,0.342391304 L34.6304348,0.342391304 C35.4619565,0.342391304 36.1956522,0.472826087 36.8152174,0.75 C37.4347826,1.02717391 37.9565217,1.38586957 38.3804348,1.85869565 C38.8043478,2.31521739 39.1141304,2.86956522 39.326087,3.48913043 C39.5380435,4.10869565 39.6521739,4.77717391 39.6521739,5.47826087 C39.6521739,6.26086957 39.5380435,6.97826087 39.2934783,7.59782609 C39.048913,8.23369565 38.7228261,8.77173913 38.2826087,9.22826087 C37.8423913,9.68478261 37.3206522,10.0271739 36.701087,10.2717391 C36.0815217,10.5163043 35.3967391,10.6467391 34.6304348,10.6467391 L30.9782609,10.6467391 Z M38.0054348,5.47826087 C38.0054348,4.94021739 37.923913,4.43478261 37.7771739,3.97826087 C37.6304348,3.52173913 37.4021739,3.13043478 37.125,2.80434783 C36.8315217,2.47826087 36.4891304,2.23369565 36.0652174,2.03804348 C35.6413043,1.85869565 35.1684783,1.76086957 34.6467391,1.76086957 L32.6086957,1.76086957 L32.6086957,9.19565217 L34.6467391,9.19565217 C35.1847826,9.19565217 35.673913,9.09782609 36.0978261,8.91847826 C36.5217391,8.72282609 36.8641304,8.46195652 37.1576087,8.13586957 C37.4347826,7.80978261 37.6630435,7.40217391 37.8097826,6.94565217 C37.923913,6.50543478 38.0054348,6.01630435 38.0054348,5.47826087 Z" id="Shape"></path>
                <path d="M51.1956522,10.6304348 L50.1032609,9.52173913 C49.6956522,9.88043478 49.2391304,10.1576087 48.7336957,10.3369565 C48.2445652,10.5326087 47.7228261,10.6141304 47.1847826,10.6141304 C46.6956522,10.6141304 46.2391304,10.5326087 45.8478261,10.3858696 C45.4402174,10.2391304 45.0978261,10.0271739 44.8043478,9.76630435 C44.5108696,9.50543478 44.2826087,9.19565217 44.1195652,8.85326087 C43.9565217,8.51086957 43.875,8.11956522 43.875,7.72826087 C43.875,7.40217391 43.923913,7.10869565 44.0380435,6.83152174 C44.1358696,6.55434783 44.2826087,6.30978261 44.4456522,6.08152174 C44.6086957,5.85326087 44.8043478,5.64130435 45.0326087,5.44565217 C45.2608696,5.25 45.4891304,5.05434783 45.7336957,4.875 C45.5217391,4.64673913 45.3423913,4.41847826 45.1956522,4.22282609 C45.048913,4.02717391 44.9347826,3.83152174 44.8369565,3.66847826 C44.7391304,3.48913043 44.673913,3.32608696 44.6413043,3.16304348 C44.6086957,3 44.5923913,2.82065217 44.5923913,2.64130435 C44.5923913,2.29891304 44.6576087,1.98913043 44.8043478,1.69565217 C44.9347826,1.40217391 45.1304348,1.1576087 45.3586957,0.945652174 C45.5869565,0.733695652 45.8804348,0.570652174 46.2065217,0.472826087 C46.5326087,0.375 46.8913043,0.309782609 47.2663043,0.309782609 C47.6086957,0.309782609 47.9347826,0.358695652 48.2445652,0.456521739 C48.5543478,0.554347826 48.8315217,0.684782609 49.0597826,0.864130435 C49.2880435,1.04347826 49.4836957,1.27173913 49.6141304,1.5326087 C49.7445652,1.79347826 49.826087,2.10326087 49.826087,2.44565217 C49.826087,3 49.6467391,3.48913043 49.2880435,3.89673913 C48.9293478,4.30434783 48.4728261,4.69565217 47.9347826,5.05434783 L50.1847826,7.41847826 C50.3478261,7.0923913 50.4619565,6.73369565 50.5597826,6.35869565 C50.6413043,5.98369565 50.6902174,5.57608696 50.6902174,5.13586957 L51.9782609,5.13586957 C51.9619565,5.77173913 51.8804348,6.35869565 51.7336957,6.89673913 C51.5869565,7.43478261 51.375,7.92391304 51.0978261,8.38043478 L53.2336957,10.6141304 L51.1956522,10.6141304 L51.1956522,10.6304348 Z M47.3478261,9.4076087 C47.7065217,9.4076087 48.048913,9.3423913 48.375,9.21195652 C48.701087,9.08152174 48.9945652,8.88586957 49.2717391,8.64130435 L46.6630435,5.88586957 C46.2717391,6.16304348 45.9619565,6.44021739 45.7336957,6.75 C45.5054348,7.05978261 45.3913043,7.38586957 45.3913043,7.76086957 C45.3913043,8.00543478 45.4402174,8.23369565 45.5543478,8.42934783 C45.6521739,8.625 45.798913,8.80434783 45.9782609,8.95108696 C46.1576087,9.09782609 46.3695652,9.19565217 46.5978261,9.27717391 C46.8097826,9.35869565 47.0706522,9.4076087 47.3478261,9.4076087 Z M45.9945652,2.60869565 C45.9945652,2.70652174 46.0108696,2.78804348 46.0434783,2.88586957 C46.076087,2.98369565 46.125,3.08152174 46.1902174,3.17934783 C46.2554348,3.29347826 46.3532609,3.4076087 46.4836957,3.55434783 C46.6141304,3.70108696 46.7608696,3.88043478 46.9565217,4.07608696 C47.3967391,3.79891304 47.7391304,3.53804348 47.9836957,3.29347826 C48.2445652,3.04891304 48.3586957,2.78804348 48.3586957,2.47826087 C48.3586957,2.16847826 48.2445652,1.94021739 48.0326087,1.74456522 C47.8206522,1.56521739 47.5434783,1.4673913 47.2173913,1.4673913 C46.8586957,1.4673913 46.5652174,1.58152174 46.3206522,1.79347826 C46.1086957,2.03804348 45.9945652,2.29891304 45.9945652,2.60869565 Z" id="Shape"></path>
                <polygon id="Path" points="66.2119565 10.6467391 66.2119565 3.22826087 63.1467391 8.83695652 62.25 8.83695652 59.1684783 3.22826087 59.1684783 10.6467391 57.5380435 10.6467391 57.5380435 0.342391304 59.2826087 0.342391304 62.6902174 6.63586957 66.0978261 0.342391304 67.8423913 0.342391304 67.8423913 10.6467391 66.2119565 10.6467391"></polygon>
                <path d="M74.7880435,10.6467391 C74.0706522,10.6467391 73.4021739,10.5 72.8152174,10.2065217 C72.2282609,9.91304348 71.7065217,9.52173913 71.2826087,9.0326087 C70.8586957,8.54347826 70.5163043,7.98913043 70.2880435,7.36956522 C70.0597826,6.75 69.9456522,6.09782609 69.9456522,5.44565217 C69.9456522,4.76086957 70.076087,4.10869565 70.3206522,3.47282609 C70.5652174,2.85326087 70.9076087,2.29891304 71.3478261,1.80978261 C71.7880435,1.32065217 72.2934783,0.945652174 72.8967391,0.652173913 C73.5,0.375 74.1521739,0.22826087 74.8532609,0.22826087 C75.5706522,0.22826087 76.2391304,0.375 76.826087,0.684782609 C77.4130435,0.994565217 77.9347826,1.38586957 78.3586957,1.875 C78.7826087,2.36413043 79.1086957,2.91847826 79.3369565,3.53804348 C79.5652174,4.1576087 79.6793478,4.79347826 79.6793478,5.44565217 C79.6793478,6.13043478 79.548913,6.7826087 79.3043478,7.41847826 C79.0597826,8.03804348 78.7173913,8.5923913 78.2771739,9.08152174 C77.8369565,9.55434783 77.3315217,9.94565217 76.7445652,10.2228261 C76.1413043,10.5163043 75.4891304,10.6467391 74.7880435,10.6467391 Z M71.5923913,5.44565217 C71.5923913,5.93478261 71.673913,6.39130435 71.8206522,6.84782609 C71.9673913,7.30434783 72.1793478,7.69565217 72.4565217,8.05434783 C72.7336957,8.39673913 73.076087,8.67391304 73.4673913,8.88586957 C73.8586957,9.09782609 74.298913,9.19565217 74.8043478,9.19565217 C75.3097826,9.19565217 75.75,9.08152174 76.1576087,8.86956522 C76.5652174,8.6576087 76.8913043,8.36413043 77.1684783,8.00543478 C77.4456522,7.64673913 77.6576087,7.25543478 77.8043478,6.79891304 C77.951087,6.35869565 78.0163043,5.90217391 78.0163043,5.44565217 C78.0163043,4.95652174 77.9347826,4.48369565 77.7880435,4.04347826 C77.6413043,3.60326087 77.4130435,3.19565217 77.1358696,2.85326087 C76.8586957,2.51086957 76.5163043,2.23369565 76.125,2.02173913 C75.7336957,1.80978261 75.2934783,1.71195652 74.8043478,1.71195652 C74.298913,1.71195652 73.8586957,1.82608696 73.451087,2.03804348 C73.0434783,2.25 72.7173913,2.54347826 72.4402174,2.88586957 C72.1630435,3.22826087 71.951087,3.63586957 71.8043478,4.07608696 C71.6576087,4.5326087 71.5923913,4.98913043 71.5923913,5.44565217 Z" id="Shape"></path>
                <path d="M86.2173913,10.6467391 C85.5,10.6467391 84.8315217,10.5 84.2445652,10.2065217 C83.6576087,9.91304348 83.1358696,9.52173913 82.7119565,9.0326087 C82.2880435,8.54347826 81.9456522,7.98913043 81.7173913,7.36956522 C81.4891304,6.75 81.375,6.09782609 81.375,5.44565217 C81.375,4.76086957 81.5054348,4.10869565 81.75,3.47282609 C81.9945652,2.85326087 82.3369565,2.29891304 82.7771739,1.80978261 C83.2173913,1.32065217 83.7228261,0.945652174 84.326087,0.652173913 C84.9293478,0.375 85.5815217,0.22826087 86.2826087,0.22826087 C87,0.22826087 87.6684783,0.375 88.2554348,0.684782609 C88.8423913,0.994565217 89.3641304,1.38586957 89.7880435,1.875 C90.2119565,2.36413043 90.5380435,2.91847826 90.7663043,3.53804348 C90.9945652,4.1576087 91.1086957,4.79347826 91.1086957,5.44565217 C91.1086957,6.13043478 90.9782609,6.7826087 90.7336957,7.41847826 C90.4891304,8.03804348 90.1467391,8.5923913 89.7065217,9.08152174 C89.2663043,9.55434783 88.7608696,9.94565217 88.173913,10.2228261 C87.5706522,10.5163043 86.9184783,10.6467391 86.2173913,10.6467391 Z M83.0217391,5.44565217 C83.0217391,5.93478261 83.1032609,6.39130435 83.25,6.84782609 C83.3967391,7.30434783 83.6086957,7.69565217 83.8858696,8.05434783 C84.1630435,8.39673913 84.5054348,8.67391304 84.8967391,8.88586957 C85.2880435,9.09782609 85.7282609,9.19565217 86.2336957,9.19565217 C86.7391304,9.19565217 87.1793478,9.08152174 87.5869565,8.86956522 C87.9945652,8.6576087 88.3206522,8.36413043 88.5978261,8.00543478 C88.875,7.64673913 89.0869565,7.25543478 89.2336957,6.79891304 C89.3804348,6.35869565 89.4456522,5.90217391 89.4456522,5.44565217 C89.4456522,4.95652174 89.3641304,4.48369565 89.2173913,4.04347826 C89.0706522,3.60326087 88.8423913,3.19565217 88.5652174,2.85326087 C88.2880435,2.51086957 87.9456522,2.23369565 87.5543478,2.02173913 C87.1630435,1.80978261 86.7228261,1.71195652 86.2336957,1.71195652 C85.7282609,1.71195652 85.2880435,1.82608696 84.8804348,2.03804348 C84.4728261,2.25 84.1467391,2.54347826 83.8695652,2.88586957 C83.5923913,3.22826087 83.3804348,3.63586957 83.2336957,4.07608696 C83.0869565,4.5326087 83.0217391,4.98913043 83.0217391,5.44565217 Z" id="Shape"></path>
                <path d="M93.2119565,10.6467391 L93.2119565,0.342391304 L97.6956522,0.342391304 C98.1521739,0.342391304 98.5923913,0.440217391 98.9836957,0.635869565 C99.375,0.831521739 99.7173913,1.07608696 99.9945652,1.40217391 C100.271739,1.71195652 100.5,2.07065217 100.646739,2.47826087 C100.809783,2.88586957 100.891304,3.29347826 100.891304,3.70108696 C100.891304,4.04347826 100.842391,4.38586957 100.744565,4.69565217 C100.646739,5.02173913 100.516304,5.31521739 100.336957,5.57608696 C100.157609,5.85326087 99.9456522,6.08152174 99.701087,6.27717391 C99.4565217,6.47282609 99.1793478,6.61956522 98.8695652,6.7173913 L101.315217,10.6304348 L99.4728261,10.6304348 L97.2065217,7.04347826 L94.826087,7.04347826 L94.826087,10.6304348 L93.2119565,10.6304348 L93.2119565,10.6467391 Z M94.8423913,5.625 L97.6793478,5.625 C97.9076087,5.625 98.1195652,5.57608696 98.3152174,5.47826087 C98.5108696,5.38043478 98.673913,5.23369565 98.8043478,5.05434783 C98.9347826,4.875 99.048913,4.66304348 99.1304348,4.43478261 C99.2119565,4.20652174 99.2445652,3.96195652 99.2445652,3.70108696 C99.2445652,3.44021739 99.1956522,3.19565217 99.1141304,2.9673913 C99.0163043,2.73913043 98.9021739,2.52717391 98.7554348,2.36413043 C98.6086957,2.18478261 98.4293478,2.05434783 98.2336957,1.95652174 C98.0380435,1.85869565 97.826087,1.80978261 97.6141304,1.80978261 L94.8586957,1.80978261 L94.8586957,5.625 L94.8423913,5.625 Z" id="Shape"></path>
                <polygon id="Path" points="110.380435 9.21195652 110.380435 10.6467391 103.304348 10.6467391 103.304348 0.342391304 110.233696 0.342391304 110.233696 1.77717391 104.918478 1.77717391 104.918478 4.71195652 109.516304 4.71195652 109.516304 6.06521739 104.918478 6.06521739 104.918478 9.21195652"></polygon>
            </g>
            <g id="Group" transform="translate(43.206522, 20.543478)" fill="#445664">
                <polygon id="Path" points="0.114130435 0.179347826 3.58695652 0.179347826 3.58695652 0.945652174 1.01086957 0.945652174 1.01086957 2.25 3.53804348 2.25 3.53804348 3.01630435 1.01086957 3.01630435 1.01086957 4.40217391 3.58695652 4.40217391 3.58695652 5.16847826 0.114130435 5.16847826"></polygon>
                <polygon id="Path" points="9.06521739 3.22826087 7.64673913 5.18478261 6.58695652 5.18478261 8.47826087 2.60869565 6.70108696 0.163043478 7.76086957 0.163043478 9.06521739 2.00543478 10.3695652 0.163043478 11.4456522 0.163043478 9.66847826 2.60869565 11.5597826 5.18478261 10.5 5.18478261"></polygon>
                <polygon id="Path" points="14.7391304 0.179347826 18.2119565 0.179347826 18.2119565 0.945652174 15.6358696 0.945652174 15.6358696 2.25 18.1630435 2.25 18.1630435 3.01630435 15.6358696 3.01630435 15.6358696 4.40217391 18.2119565 4.40217391 18.2119565 5.16847826 14.7391304 5.16847826"></polygon>
                <path d="M21.5054348,2.5923913 C21.5054348,1.05978261 22.6630435,0 24.1141304,0 C25.173913,0 25.8097826,0.52173913 26.1847826,1.125 L25.4184783,1.5 C25.173913,1.0923913 24.6847826,0.766304348 24.1141304,0.766304348 C23.1521739,0.766304348 22.4021739,1.5326087 22.4021739,2.57608696 C22.4021739,3.61956522 23.1521739,4.38586957 24.1141304,4.38586957 C24.701087,4.38586957 25.1902174,4.07608696 25.4184783,3.65217391 L26.1847826,4.02717391 C25.7934783,4.63043478 25.173913,5.15217391 24.1141304,5.15217391 C22.6630435,5.18478261 21.5054348,4.14130435 21.5054348,2.5923913 Z" id="Path"></path>
                <path d="M29.5271739,0.0815217391 L30.423913,0.0815217391 L30.423913,3.09782609 C30.423913,3.89673913 30.8641304,4.41847826 31.7282609,4.41847826 C32.576087,4.41847826 33.0163043,3.89673913 33.0163043,3.09782609 L33.0163043,0.097826087 L33.9130435,0.097826087 L33.9130435,3.13043478 C33.9130435,4.36956522 33.1956522,5.20108696 31.7282609,5.20108696 C30.2608696,5.20108696 29.5434783,4.36956522 29.5434783,3.13043478 L29.5434783,0.0815217391 L29.5271739,0.0815217391 Z" id="Path"></path>
                <polygon id="Path" points="38.576087 0.945652174 37.0434783 0.945652174 37.0434783 0.179347826 40.9891304 0.179347826 40.9891304 0.945652174 39.4565217 0.945652174 39.4565217 5.18478261 38.576087 5.18478261"></polygon>
                <polygon id="Path" points="44.576087 0.179347826 45.4565217 0.179347826 45.4565217 5.18478261 44.576087 5.18478261"></polygon>
                <polygon id="Path" points="48.6358696 0.179347826 49.6467391 0.179347826 51.1793478 4.23913043 52.7119565 0.179347826 53.7228261 0.179347826 51.7336957 5.18478261 50.625 5.18478261"></polygon>
                <polygon id="Path" points="56.8858696 0.179347826 60.3586957 0.179347826 60.3586957 0.945652174 57.7826087 0.945652174 57.7826087 2.25 60.3097826 2.25 60.3097826 3.01630435 57.7826087 3.01630435 57.7826087 4.40217391 60.3586957 4.40217391 60.3586957 5.16847826 56.8858696 5.16847826"></polygon>
                <path d="M68.6086957,3.7173913 C68.951087,4.0923913 69.5054348,4.40217391 70.2065217,4.40217391 C70.9402174,4.40217391 71.2173913,4.04347826 71.2173913,3.7173913 C71.2173913,3.26086957 70.6793478,3.13043478 70.0597826,2.9673913 C69.2282609,2.77173913 68.2663043,2.52717391 68.2663043,1.4673913 C68.2663043,0.635869565 69,2.84217094e-14 70.1086957,2.84217094e-14 C70.8913043,2.84217094e-14 71.5271739,0.244565217 72,0.701086957 L71.4945652,1.35326087 C71.1032609,0.961956522 70.5652174,0.782608696 70.0271739,0.782608696 C69.5054348,0.782608696 69.1630435,1.02717391 69.1630435,1.40217391 C69.1630435,1.79347826 69.6847826,1.92391304 70.2717391,2.07065217 C71.1032609,2.2826087 72.0978261,2.54347826 72.0978261,3.61956522 C72.0978261,4.45108696 71.5108696,5.16847826 70.1413043,5.16847826 C69.2119565,5.16847826 68.5271739,4.8423913 68.0869565,4.36956522 L68.6086957,3.7173913 Z" id="Path"></path>
                <polygon id="Path" points="75.7826087 0.179347826 79.2554348 0.179347826 79.2554348 0.945652174 76.6793478 0.945652174 76.6793478 2.25 79.2065217 2.25 79.2065217 3.01630435 76.6793478 3.01630435 76.6793478 4.40217391 79.2554348 4.40217391 79.2554348 5.16847826 75.7826087 5.16847826"></polygon>
                <path d="M86.201087,4.22282609 L83.8043478,4.22282609 L83.4293478,5.18478261 L82.451087,5.18478261 L84.4402174,0.179347826 L85.548913,0.179347826 L87.5380435,5.18478261 L86.5597826,5.18478261 L86.201087,4.22282609 Z M84.0652174,3.45652174 L85.9565217,3.45652174 L85.0108696,0.929347826 L84.0652174,3.45652174 Z" id="Shape"></path>
                <path d="M92.4945652,3.30978261 L91.6141304,3.30978261 L91.6141304,5.18478261 L90.7336957,5.18478261 L90.7336957,0.179347826 L92.9347826,0.179347826 C93.9293478,0.179347826 94.5815217,0.831521739 94.5815217,1.74456522 C94.5815217,2.64130435 93.9945652,3.11413043 93.3913043,3.21195652 L94.6304348,5.18478261 L93.6032609,5.18478261 L92.4945652,3.30978261 Z M92.8206522,0.945652174 L91.6141304,0.945652174 L91.6141304,2.54347826 L92.8206522,2.54347826 C93.326087,2.54347826 93.6847826,2.23369565 93.6847826,1.74456522 C93.6847826,1.25543478 93.326087,0.945652174 92.8206522,0.945652174 Z" id="Shape"></path>
                <path d="M97.6467391,2.5923913 C97.6467391,1.05978261 98.8043478,0 100.255435,0 C101.315217,0 101.951087,0.52173913 102.326087,1.125 L101.559783,1.5 C101.315217,1.0923913 100.826087,0.766304348 100.255435,0.766304348 C99.2934783,0.766304348 98.5434783,1.5326087 98.5434783,2.57608696 C98.5434783,3.61956522 99.2934783,4.38586957 100.255435,4.38586957 C100.842391,4.38586957 101.331522,4.07608696 101.559783,3.65217391 L102.326087,4.02717391 C101.934783,4.63043478 101.315217,5.15217391 100.255435,5.15217391 C98.8043478,5.18478261 97.6467391,4.14130435 97.6467391,2.5923913 Z" id="Path"></path>
                <polygon id="Path" points="108.961957 3 106.336957 3 106.336957 5.18478261 105.456522 5.18478261 105.456522 0.179347826 106.336957 0.179347826 106.336957 2.23369565 108.961957 2.23369565 108.961957 0.179347826 109.842391 0.179347826 109.842391 5.18478261 108.961957 5.18478261"></polygon>
            </g>
            <path d="M0,0 L0,29.9184783 L29.9184783,29.9184783 L29.9184783,0 L0,0 Z M28.2880435,28.2880435 L1.69565217,28.2880435 L1.69565217,7.63043478 C6.7826087,8.60869565 10.6304348,13.0923913 10.6304348,18.4565217 C10.6304348,18.7826087 10.6141304,19.1086957 10.5815217,19.4184783 C12.4402174,18.0163043 14.7391304,17.1847826 17.2336957,17.1847826 C23.3315217,17.1847826 28.2717391,22.125 28.2717391,28.2228261 C28.2880435,28.2554348 28.2880435,28.2717391 28.2880435,28.2880435 Z M28.2880435,13.3369565 C26.6576087,12.423913 24.7826087,11.9021739 22.7934783,11.9021739 C19.7445652,11.9021739 16.9728261,13.125 14.951087,15.1141304 C14.3804348,9.45652174 9.60326087,5.05434783 3.79891304,5.05434783 C3.08152174,5.05434783 2.38043478,5.11956522 1.71195652,5.25 L1.71195652,1.69565217 L28.3043478,1.69565217 L28.3043478,13.3369565 L28.2880435,13.3369565 Z" id="Shape" fill="url(#linearGradient-1)"></path>
        </g>
    </g>
</svg>