<?xml version="1.0" encoding="UTF-8"?>
<svg width="88px" height="40px" viewBox="0 0 88 40" version="1.1" xmlns="http://www.w3.org/2000/svg" xmlns:xlink="http://www.w3.org/1999/xlink">
    <!-- Generator: Sketch 59.1 (86144) - https://sketch.com -->
    <title>Eire</title>
    <desc>Created with Sketch.</desc>
    <g id="Eire" stroke="none" stroke-width="1" fill="none" fill-rule="evenodd">
        <g id="EIRE-Systems-Logo_w-url" transform="translate(4.000000, 4.000000)" fill="#366E4C" fill-rule="nonzero">
            <path d="M29.8879038,12.8600591 L37.829225,12.8600591 L37.829225,10.1754044 L29.8879038,10.1754044 L29.8879038,6.68347597 L38.411213,6.68347597 L38.411213,3.9988213 L26.7151301,3.9988213 L26.7151301,19.843916 L38.711594,19.843916 L38.711594,17.1592613 L29.8879038,17.1592613 L29.8879038,12.8600591 L29.8879038,12.8600591 Z M43.1046653,19.843916 L46.277439,19.843916 L46.277439,3.9988213 L43.1046653,3.9988213 L43.1046653,19.843916 Z M60.5455337,12.7098686 C61.6531885,12.7098686 62.779617,12.2405234 63.3803789,11.5458925 C64.0750098,10.7573925 64.4317122,9.74360682 64.4317122,8.54208305 C64.4317122,7.5846188 64.2064265,6.7397974 63.7370813,5.98884504 C63.267736,5.23789269 62.6669741,4.71222604 61.897248,4.4306189 C61.1275218,4.14901177 59.9072242,3.9988213 58.2175814,3.9988213 L51.0272126,3.9988213 L51.0272126,19.843916 L54.1999863,19.843916 L54.1999863,6.68347597 L55.213772,6.68347597 C55.3639625,6.68347597 55.5141529,6.68347597 55.6643434,6.68347597 L55.6643434,6.68347597 L56.6781291,6.68347597 C57.9735219,6.68347597 59.2313671,6.70224978 59.4942004,6.7397974 C60.0010933,6.83366644 60.4141171,7.05895215 60.6957242,7.41565452 C60.9773313,7.77235689 61.1275218,8.2229283 61.1275218,8.80491638 C61.1275218,9.31180922 61.014879,9.72483302 60.8083671,10.0815354 C60.6018552,10.4194639 60.3014742,10.6635235 59.9072242,10.7949401 C59.5317481,10.9263568 58.0861648,10.9451306 56.5467124,10.9451306 L61.3715813,19.843916 L65.1826645,19.843916 C65.1826645,19.843916 62.5543313,15.4320709 62.2164027,14.8876305 C61.9160218,14.34319 61.3152599,13.0853448 60.5455337,12.7098686 Z M71.9224619,17.1592613 L71.9224619,12.8600591 L79.8637831,12.8600591 L79.8637831,10.1754044 L71.9224619,10.1754044 L71.9224619,6.68347597 L80.4269974,6.68347597 L80.4269974,3.9988213 L68.7309144,3.9988213 L68.7309144,19.843916 L80.7273783,19.843916 L80.7273783,17.1592613 L71.9224619,17.1592613 Z M1.33294043,9.78115444 C1.2578452,9.4807735 1.22029758,9.14284494 1.22029758,8.82369019 L1.22029758,8.82369019 C1.22029758,8.12905926 1.38926186,7.45320214 1.74596423,6.79611883 L1.74596423,6.79611883 C2.29040469,5.87620219 3.1539999,5.21911888 4.11146415,4.95628555 L4.11146415,4.95628555 C4.74977365,4.76854746 5.40685697,4.58080937 6.06394028,4.44939271 L6.06394028,4.44939271 C5.85742838,5.0501546 5.63214267,5.97007123 5.59459506,6.49573788 C5.29421411,6.57083312 4.97505936,6.66470216 4.67467842,6.75857121 L4.67467842,6.75857121 C4.16778558,6.90876168 3.69844036,7.24669024 3.39805941,7.73480927 L3.39805941,7.73480927 C3.21032132,8.07273783 3.11645228,8.4294402 3.11645228,8.80491638 L3.11645228,8.80491638 C3.11645228,8.99265447 3.13522609,9.16161875 3.19154751,9.34935684 L3.19154751,9.34935684 C3.73598797,11.395702 4.4306189,13.3669519 5.51949982,15.2443328 L5.51949982,15.2443328 C5.81988076,15.7699995 6.13903551,16.2581185 6.47696407,16.7650114 L6.47696407,16.7650114 L6.49573788,16.802559 C6.1202617,16.9527494 4.91873793,17.1217137 4.44939271,17.1217137 L4.44939271,17.1217137 C4.4306189,17.1029399 4.44939271,17.1217137 4.4306189,17.1029399 C4.24288081,16.7837852 4.05514272,16.4834042 3.86740464,16.1642495 L3.86740464,16.1642495 C2.70342848,14.1366781 1.83983327,11.9776901 1.33294043,9.78115444 L1.33294043,9.78115444 M4.14901177,10.5321068 L4.16778558,10.513333 C6.1014879,9.12407113 8.46698782,8.29802354 11.0202258,8.29802354 L11.0202258,8.29802354 C11.6209877,8.29802354 12.4845829,8.39189258 12.9163805,8.46698782 L12.9163805,8.46698782 L13.0477972,8.48576163 C13.0853448,8.95510685 12.8976067,10.1566306 12.7286424,10.607202 L12.6535472,10.5884282 C12.4094877,10.5321068 11.5834401,10.4382378 11.0389996,10.4382378 L11.0389996,10.4382378 L11.0389996,10.4382378 C9.31180922,10.4382378 7.67848784,10.907583 6.27045218,11.7148568 L6.27045218,11.7148568 C5.81988076,11.9589163 5.40685697,12.2592972 5.01260698,12.578452 L5.01260698,12.578452 L4.93751174,12.6347734 C4.67467842,12.184202 4.28042843,11.0389996 4.14901177,10.5321068 Z M14.831309,3.64211893 L14.8500828,3.73598797 C14.3619638,3.64211893 12.9163805,3.47315465 12.3343925,3.47315465 L12.2968448,3.41683322 C12.1278806,3.13522609 11.9401425,2.85361895 11.7336306,2.57201182 L11.7336306,2.57201182 C11.5646663,2.34672611 11.2830592,2.19653564 10.9639044,2.17776183 L10.9639044,2.17776183 L10.9263568,2.17776183 C10.5884282,2.17776183 10.3068211,2.3279523 10.119083,2.57201182 L10.119083,2.57201182 C8.93633304,4.14901177 8.29802354,6.06394028 8.24170211,7.9976426 C7.75358308,8.07273783 6.49573788,8.50453544 6.1014879,8.69227353 C6.1014879,8.59840448 6.1014879,8.37311877 6.1014879,8.20415449 L6.1014879,8.20415449 C6.1014879,5.6884641 6.87121406,3.17277371 8.46698782,1.18274996 L8.46698782,1.18274996 C9.04897589,0.450571414 9.93134491,0 10.9263568,0 L10.9263568,0 L10.9263568,0 C10.9263568,0 10.9263568,0 10.9263568,0 L10.9263568,0 C11.9213687,0 12.8412853,0.431797605 13.4044996,1.18274996 L13.4044996,1.18274996 C13.9864876,1.93370232 14.4558329,2.75974991 14.831309,3.64211893 L14.831309,3.64211893 M17.778797,4.97505936 C18.079178,5.06892841 18.3795589,5.20034507 18.6611661,5.35053554 L18.6611661,5.35053554 C19.2619279,5.6884641 19.7688208,6.17658313 20.144297,6.81489263 L20.144297,6.81489263 C20.6699636,7.75358308 20.8013803,8.80491638 20.5573208,9.78115444 L20.5573208,9.78115444 C20.4071303,10.4382378 20.238166,11.0953211 20.0316541,11.7336306 L20.0316541,11.7336306 C19.6186303,11.2455115 18.9239994,10.607202 18.4922018,10.3068211 C18.567297,10.0064401 18.6423922,9.6872854 18.7362613,9.36813065 L18.7362613,9.36813065 C18.867678,8.842464 18.8113565,8.27924973 18.5297494,7.77235689 L18.5297494,7.77235689 C18.3232375,7.43442833 18.0604042,7.171595 17.7600232,7.00263072 L17.7600232,7.00263072 C17.6098328,6.90876168 17.4408685,6.83366644 17.2531304,6.79611883 L17.2531304,6.79611883 C15.2067852,6.25167837 13.1416662,5.87620219 10.9826782,5.85742838 L10.9826782,5.85742838 C10.3819163,5.85742838 9.79992825,5.87620219 9.18039256,5.93252362 L9.18039256,5.93252362 L9.14284494,5.93252362 C9.19916637,5.53827363 9.64973778,4.41184509 9.8937973,3.9988213 L9.87502349,3.9988213 C9.8937973,3.9988213 9.87502349,3.9988213 9.8937973,3.9988213 C10.2692735,3.98004749 10.607202,3.98004749 10.9826782,3.98004749 L10.9826782,3.98004749 C13.3294043,3.98004749 15.619809,4.31797605 17.778797,4.97505936 L17.778797,4.97505936 M15.7324519,7.04017834 L15.7324519,7.07772596 C15.9765114,9.44322588 15.5071662,11.9025948 14.2305472,14.1179043 L14.2305472,14.1179043 C13.9301662,14.643571 13.4232734,15.3382019 13.1416662,15.6761304 L13.1416662,15.6761304 L13.0477972,15.7699995 C12.6347734,15.5634876 11.696083,14.7937614 11.3769282,14.4370591 L11.4332496,14.3807376 C11.6022139,14.1929995 12.0903329,13.5359162 12.3719401,13.0477972 L12.3719401,13.0477972 L12.3719401,13.0477972 C13.2355353,11.5458925 13.6485591,9.8937973 13.6485591,8.26047592 L13.6485591,8.26047592 C13.6485591,7.75358308 13.6110115,7.24669024 13.5359162,6.7397974 L13.5359162,6.7397974 L13.5171424,6.66470216 C14.0240353,6.66470216 15.225559,6.90876168 15.7324519,7.04017834 Z M16.3519876,19.750047 L16.2581185,19.7312732 C16.5772733,19.355797 17.4596423,18.1918208 17.7600232,17.684928 L17.8351185,17.684928 C18.173047,17.684928 18.5109756,17.6473804 18.8489041,17.6098328 L18.8489041,17.6098328 C19.1305113,17.5722851 19.4121184,17.4033209 19.5810827,17.1404875 L19.5810827,17.1404875 L19.5998565,17.1029399 C19.7688208,16.8213328 19.7688208,16.4834042 19.6561779,16.2017971 L19.6561779,16.2017971 C18.867678,14.3807376 17.5535113,12.8788329 15.8826423,11.8650472 C16.0703804,11.395702 16.3519876,10.1566306 16.3519876,9.66851159 C16.4270828,9.70605921 16.6335947,9.81870206 16.7837852,9.8937973 L16.7837852,9.8937973 C18.961547,11.1516425 20.7450588,13.0853448 21.6837493,15.4508447 L21.6837493,15.4508447 C22.0216779,16.3144399 21.9653564,17.3094518 21.4772374,18.173047 L21.4772374,18.173047 L21.4772374,18.173047 C21.4772374,18.173047 21.4772374,18.173047 21.4772374,18.173047 L21.4772374,18.173047 C20.9703446,19.0366422 20.144297,19.6186303 19.2243803,19.7312732 L19.2243803,19.7312732 C18.2481423,19.8626898 17.290678,19.8626898 16.3519876,19.750047 L16.3519876,19.750047 M13.7236543,21.6086541 C13.4983686,21.815166 13.2355353,22.0216779 12.9539281,22.1718683 L12.9539281,22.1718683 C12.3531663,22.5097969 11.6773091,22.7163088 10.9451306,22.7163088 L10.9451306,22.7163088 C9.87502349,22.7163088 8.88001161,22.2845112 8.16660688,21.5898802 L8.16660688,21.5898802 C7.67848784,21.120535 7.19036881,20.6511898 6.7397974,20.1630708 L6.7397974,20.1630708 C7.35933309,20.0504279 8.26047592,19.7688208 8.74859495,19.5435351 C8.97388066,19.7688208 9.21794018,19.9941065 9.44322588,20.2193922 L9.44322588,20.2193922 C9.81870206,20.5948684 10.3631425,20.8201541 10.9263568,20.8201541 L10.9263568,20.8201541 C11.3206068,20.8201541 11.6773091,20.726285 11.9964639,20.5385469 L11.9964639,20.5385469 C12.1466544,20.4446779 12.2968448,20.3320351 12.4282615,20.2006184 L12.4282615,20.2006184 C13.9113924,18.7174875 15.2818805,17.1029399 16.3707614,15.2443328 L16.3707614,15.2443328 C16.6711423,14.7186662 16.9339756,14.1929995 17.2155828,13.6485591 L17.2155828,13.6485591 L17.2343566,13.6110115 C17.5535113,13.855071 18.3044637,14.8125352 18.5297494,15.225559 L18.5297494,15.2067852 C18.5109756,15.225559 18.5297494,15.2067852 18.5109756,15.225559 C18.3420113,15.5447138 18.173047,15.8638685 17.9853089,16.1830233 L17.9853089,16.1830233 C16.802559,18.2669161 15.3757495,20.0879755 13.7236543,21.6086541 L13.7236543,21.6086541 M12.9539281,18.8113565 L12.9163805,18.7925827 C10.7573925,17.8351185 8.86123781,16.2017971 7.5846188,13.9864876 L7.5846188,13.9864876 C7.28423786,13.460821 6.9463093,12.672321 6.77734502,12.2592972 L6.77734502,12.2592972 L6.7397974,12.1278806 C7.13404739,11.8650472 8.26047592,11.4332496 8.72982114,11.3581544 L8.76736876,11.4332496 C8.842464,11.6773091 9.18039256,12.4282615 9.44322588,12.9163805 L9.44322588,12.9163805 L9.44322588,12.9163805 C10.3068211,14.4182852 11.5458925,15.6010352 12.9351543,16.408309 L12.9351543,16.408309 C13.3669519,16.6711423 13.8362972,16.8776542 14.3056424,17.0653923 L14.3056424,17.0653923 L14.3807376,17.1029399 C14.1366781,17.5347375 13.3294043,18.4358804 12.9539281,18.8113565 Z M1.65209518,12.9914758 L1.72719042,12.9163805 C1.8961547,13.3857258 2.45936897,14.73744 2.75974991,15.2443328 L2.72220229,15.3006543 C2.55323801,15.6010352 2.42182135,15.9014161 2.27163088,16.2205709 L2.27163088,16.2205709 C2.15898802,16.4834042 2.17776183,16.802559 2.3091785,17.0841661 L2.3091785,17.0841661 L2.3279523,17.1217137 C2.49691659,17.4033209 2.77852372,17.5910589 3.07890466,17.6098328 L3.07890466,17.6098328 C5.03138079,17.8351185 7.00263072,17.4596423 8.71104733,16.5209518 C9.01142828,16.896428 10.0064401,17.8163447 10.3819163,18.0416304 C10.3068211,18.0979518 10.1003092,18.2105946 9.96889253,18.2856899 L9.96889253,18.2856899 C7.7911307,19.5435351 5.21911888,20.1255232 2.70342848,19.750047 L2.70342848,19.750047 C1.78351185,19.5998565 0.938690446,19.055416 0.450571414,18.1918208 L0.450571414,18.1918208 L0.450571414,18.1918208 C0.450571414,18.1918208 0.450571414,18.1918208 0.450571414,18.1918208 L0.450571414,18.1918208 C-0.0563214267,17.3282256 -0.131416662,16.3144399 0.225285707,15.4508447 L0.225285707,15.4508447 C0.600761885,14.5872495 1.07010711,13.7612019 1.65209518,12.9914758 L1.65209518,12.9914758 M1.0513333,25.5699277 L1.85860708,28.9116657 L2.68465467,25.5699277 L3.49192846,25.5699277 L4.31797605,28.8928919 L5.18157126,25.5699277 L5.894976,25.5699277 L4.65590461,29.8128086 L3.94249987,29.8128086 L3.07890466,26.527392 L2.23408326,29.8128086 L1.50190471,29.8128086 L0.281607134,25.5699277 L1.0513333,25.5699277 Z M6.9463093,25.5699277 L7.75358308,28.9116657 L8.57963067,25.5699277 L9.38690446,25.5699277 L10.212952,28.8928919 L11.0765473,25.5699277 L11.789952,25.5699277 L10.5508806,29.8128086 L9.81870206,29.8128086 L8.95510685,26.527392 L8.11028545,29.8128086 L7.3781069,29.8128086 L6.15780932,25.5699277 L6.9463093,25.5699277 Z M12.8412853,25.5699277 L13.6485591,28.9116657 L14.4746067,25.5699277 L15.2818805,25.5699277 L16.107928,28.8928919 L16.9715233,25.5699277 L17.684928,25.5699277 L16.4458566,29.8128086 L15.7136781,29.8128086 L14.8500828,26.527392 L14.0052614,29.8128086 L13.2730829,29.8128086 L12.0527853,25.5699277 L12.8412853,25.5699277 Z M18.1354994,28.9492133 L18.961547,28.9492133 L18.961547,29.8128086 L18.1354994,29.8128086 L18.1354994,28.9492133 Z M22.8852731,25.7013444 C23.1668802,25.8515349 23.3733921,26.0204992 23.5235826,26.2457849 C23.673773,26.4522968 23.7676421,26.7151301 23.8051897,26.9967372 C23.8427373,27.1844753 23.8615111,27.5036301 23.8615111,27.9354277 L20.7826065,27.9354277 C20.8013803,28.3672253 20.8952493,28.7051538 21.0829874,28.9679871 C21.2707255,29.2308205 21.5711064,29.3622371 21.9653564,29.3622371 C22.3408326,29.3622371 22.6224397,29.2308205 22.8477254,28.986761 C22.9791421,28.8365705 23.0542373,28.68638 23.1105588,28.4986419 L23.8051897,28.4986419 C23.7864159,28.6488324 23.7300945,28.8365705 23.6174516,29.0243086 C23.5048088,29.2120467 23.3921659,29.3810109 23.2607492,29.4936538 C23.0542373,29.7001657 22.7726302,29.8503562 22.4722493,29.9254514 C22.303285,29.962999 22.1155469,29.9817728 21.8902612,29.9817728 C21.3645945,29.9817728 20.9140231,29.7940347 20.5573208,29.3997848 C20.2006184,29.0243086 20.0128803,28.4798681 20.0128803,27.7852372 C20.0128803,27.1093801 20.2006184,26.5461658 20.5573208,26.133142 C20.9327969,25.7013444 21.4021422,25.4948325 22.002904,25.4948325 C22.303285,25.4760587 22.6036659,25.5511539 22.8852731,25.7013444 Z M23.1293326,27.3534396 C23.091785,27.0530586 23.0354635,26.7902253 22.9228207,26.621261 C22.7350826,26.2833325 22.397154,26.1143682 21.9465826,26.1143682 C21.6274279,26.1143682 21.3458207,26.227011 21.120535,26.4710706 C20.8952493,26.7151301 20.7826065,27.015511 20.7638327,27.3722134 L23.1293326,27.3722134 L23.1293326,27.3534396 Z M24.8189754,23.9929278 L25.5511539,23.9929278 L25.5511539,24.8002016 L24.8189754,24.8002016 L24.8189754,23.9929278 Z M24.8189754,25.5887015 L25.5511539,25.5887015 L25.5511539,29.8128086 L24.8189754,29.8128086 L24.8189754,25.5887015 Z M26.6775825,25.5699277 L27.3534396,25.5699277 L27.3534396,26.3021063 C27.409761,26.1519158 27.5411777,25.9829515 27.7664634,25.7764396 C27.9917491,25.5699277 28.2358086,25.4760587 28.5174157,25.4760587 C28.5361895,25.4760587 28.5549634,25.4760587 28.592511,25.4760587 C28.6300586,25.4760587 28.68638,25.4760587 28.7614753,25.4948325 L28.7614753,26.2457849 C28.7239276,26.2457849 28.68638,26.227011 28.6488324,26.227011 C28.6112848,26.227011 28.5737372,26.227011 28.5361895,26.227011 C28.1794872,26.227011 27.89788,26.3396539 27.710142,26.5649396 C27.5224039,26.7902253 27.4285348,27.0530586 27.4285348,27.3534396 L27.4285348,29.7940347 L26.7151301,29.7940347 L26.7151301,25.5699277 L26.6775825,25.5699277 Z M32.0093442,25.7013444 C32.2909513,25.8515349 32.4974632,26.0204992 32.6476537,26.2457849 C32.7978442,26.4522968 32.8917132,26.7151301 32.9292608,26.9967372 C32.9668084,27.1844753 32.9855823,27.5036301 32.9855823,27.9354277 L29.9066776,27.9354277 C29.9254514,28.3672253 30.0193204,28.7051538 30.2070585,28.9679871 C30.3947966,29.2308205 30.6951776,29.3622371 31.0894276,29.3622371 C31.4649037,29.3622371 31.7465109,29.2308205 31.9717966,28.986761 C32.1032132,28.8365705 32.1783085,28.68638 32.2346299,28.4986419 L32.9292608,28.4986419 C32.910487,28.6488324 32.8541656,28.8365705 32.7415227,29.0243086 C32.6288799,29.2120467 32.516237,29.3810109 32.3848204,29.4936538 C32.1783085,29.7001657 31.8967013,29.8503562 31.5963204,29.9254514 C31.4273561,29.962999 31.239618,29.9817728 31.0143323,29.9817728 C30.4886657,29.9817728 30.0380943,29.7940347 29.6813919,29.3997848 C29.3246895,29.0243086 29.1369514,28.4798681 29.1369514,27.7852372 C29.1369514,27.1093801 29.3246895,26.5461658 29.6813919,26.133142 C30.0568681,25.7013444 30.5262133,25.4948325 31.1269752,25.4948325 C31.4461299,25.4760587 31.7465109,25.5511539 32.0093442,25.7013444 Z M32.2721775,27.3534396 C32.2346299,27.0530586 32.1783085,26.7902253 32.0656656,26.621261 C31.8779275,26.2833325 31.539999,26.1143682 31.0894276,26.1143682 C30.7702728,26.1143682 30.4886657,26.227011 30.26338,26.4710706 C30.0380943,26.7151301 29.9254514,27.015511 29.9066776,27.3722134 L32.2721775,27.3722134 L32.2721775,27.3534396 Z M34.3748441,28.4798681 C34.3936179,28.7239276 34.4499394,28.8928919 34.5625822,29.0243086 C34.7503203,29.2495943 35.069475,29.3622371 35.5200465,29.3622371 C35.7828798,29.3622371 36.0269393,29.3059157 36.2334512,29.1932729 C36.4399631,29.08063 36.5338321,28.8928919 36.5338321,28.6676062 C36.5338321,28.4798681 36.4587369,28.3484515 36.2897726,28.2545824 C36.1771298,28.198261 35.9706179,28.1231657 35.6702369,28.0480705 L35.0882489,27.89788 C34.7127727,27.804011 34.4499394,27.710142 34.2809751,27.5974991 C33.9618203,27.409761 33.8116298,27.1469277 33.8116298,26.7902253 C33.8116298,26.3959753 33.9618203,26.0580468 34.2434275,25.8139873 C34.5438084,25.5699277 34.9380584,25.4385111 35.4261774,25.4385111 C36.0644869,25.4385111 36.5338321,25.6262492 36.8342131,26.0017253 C37.0219512,26.2457849 37.0970464,26.4898444 37.0970464,26.7714515 L36.4211893,26.7714515 C36.4024155,26.6024872 36.3460941,26.4710706 36.252225,26.3396539 C36.0832607,26.1519158 35.8016536,26.0580468 35.3886298,26.0580468 C35.1070227,26.0580468 34.9005108,26.1143682 34.7690941,26.2082372 C34.6189036,26.3021063 34.5625822,26.4522968 34.5625822,26.621261 C34.5625822,26.8089991 34.6564512,26.9591896 34.8441893,27.0718324 C34.9568322,27.1281539 35.1070227,27.2032491 35.3135346,27.2407967 L35.8016536,27.3534396 C36.3273202,27.4848562 36.6652488,27.5974991 36.8529869,27.710142 C37.134594,27.89788 37.2660107,28.1794872 37.2660107,28.5737372 C37.2660107,28.9492133 37.1158202,29.2683681 36.8342131,29.5499752 C36.5526059,29.8315824 36.1020345,29.962999 35.5012727,29.962999 C34.8629631,29.962999 34.4123917,29.8128086 34.1495584,29.5312014 C33.8867251,29.2495943 33.7365346,28.8928919 33.7177608,28.4610943 L34.3748441,28.4610943 L34.3748441,28.4798681 Z M40.7016177,25.5699277 L41.4901177,25.5699277 C41.3962486,25.8327611 41.1709629,26.4710706 40.8142606,27.4285348 C40.5514272,28.1607134 40.3449153,28.7427014 40.1571773,29.2120467 C39.7441535,30.3009276 39.4625463,30.9580109 39.2935821,31.1832966 C39.1246178,31.4273561 38.8430106,31.539999 38.4299868,31.539999 C38.3361178,31.539999 38.2610226,31.539999 38.2047011,31.5212252 C38.1483797,31.5212252 38.0920583,31.5024514 37.9981892,31.4836775 L37.9981892,30.8265942 C38.1296059,30.8641418 38.2047011,30.8829157 38.2610226,30.8829157 C38.317344,30.8829157 38.3736654,30.9016895 38.411213,30.9016895 C38.5426297,30.9016895 38.6364987,30.8829157 38.6928202,30.845368 C38.7491416,30.8078204 38.805463,30.751499 38.8430106,30.6764038 C38.8617844,30.65763 38.8993321,30.5449871 38.9932011,30.357249 C39.0682963,30.1695109 39.1433916,30.0193204 39.1621654,29.9254514 L37.5851654,25.5511539 L38.3924392,25.5511539 L39.5376416,29.0055348 L40.7016177,25.5699277 Z M42.4851296,28.4798681 C42.5039034,28.7239276 42.5602248,28.8928919 42.6728677,29.0243086 C42.8606057,29.2495943 43.1797605,29.3622371 43.6303319,29.3622371 C43.8931652,29.3622371 44.1372247,29.3059157 44.3437366,29.1932729 C44.5502485,29.08063 44.6441176,28.8928919 44.6441176,28.6676062 C44.6441176,28.4798681 44.5690224,28.3484515 44.4000581,28.2545824 C44.2874152,28.198261 44.0809033,28.1231657 43.7805224,28.0480705 L43.1985343,27.89788 C42.8230581,27.804011 42.5602248,27.710142 42.3912605,27.5974991 C42.0721058,27.409761 41.9219153,27.1469277 41.9219153,26.7902253 C41.9219153,26.3959753 42.0721058,26.0580468 42.3537129,25.8139873 C42.6540938,25.5699277 43.0483438,25.4385111 43.5364629,25.4385111 C44.1747724,25.4385111 44.6441176,25.6262492 44.9444985,26.0017253 C45.1322366,26.2457849 45.2073319,26.4898444 45.2073319,26.7714515 L44.5314747,26.7714515 C44.5127009,26.6024872 44.4563795,26.4710706 44.3625105,26.3396539 C44.1935462,26.1519158 43.911939,26.0580468 43.4989152,26.0580468 C43.2173081,26.0580468 43.0107962,26.1143682 42.8793796,26.2082372 C42.7291891,26.3021063 42.6728677,26.4522968 42.6728677,26.621261 C42.6728677,26.8089991 42.7667367,26.9591896 42.9544748,27.0718324 C43.0671176,27.1281539 43.2173081,27.2032491 43.42382,27.2407967 L43.911939,27.3534396 C44.4376057,27.4848562 44.7755343,27.5974991 44.9632723,27.710142 C45.2448795,27.89788 45.3762961,28.1794872 45.3762961,28.5737372 C45.3762961,28.9492133 45.2261057,29.2683681 44.9444985,29.5499752 C44.6628914,29.8315824 44.21232,29.962999 43.6115581,29.962999 C42.9732486,29.962999 42.5226772,29.8128086 42.2598439,29.5312014 C41.9970105,29.2495943 41.8468201,28.8928919 41.8280463,28.4610943 L42.4851296,28.4610943 L42.4851296,28.4798681 Z M46.3525342,24.3871778 L47.0659389,24.3871778 L47.0659389,25.5699277 L47.7417961,25.5699277 L47.7417961,26.1519158 L47.0659389,26.1519158 L47.0659389,28.9116657 C47.0659389,29.0618562 47.1222604,29.1557252 47.2161294,29.2120467 C47.2724508,29.2495943 47.3663199,29.2495943 47.4977365,29.2495943 C47.5352842,29.2495943 47.5728318,29.2495943 47.6103794,29.2495943 C47.647927,29.2495943 47.7042484,29.2495943 47.7417961,29.2308205 L47.7417961,29.7940347 C47.6667008,29.8128086 47.5728318,29.8315824 47.4789627,29.8503562 C47.3850937,29.86913 47.2912246,29.86913 47.1973556,29.86913 C46.859427,29.86913 46.6341413,29.7752609 46.5214985,29.6062967 C46.4088556,29.4373324 46.3525342,29.2120467 46.3525342,28.9492133 L46.3525342,26.133142 L45.7705461,26.133142 L45.7705461,25.5511539 L46.3525342,25.5511539 L46.3525342,24.3871778 Z M51.1586293,25.7013444 C51.4402364,25.8515349 51.6467483,26.0204992 51.7969388,26.2457849 C51.9471293,26.4522968 52.0409983,26.7151301 52.0785459,26.9967372 C52.1160935,27.1844753 52.1348673,27.5036301 52.1348673,27.9354277 L49.0559627,27.9354277 C49.0747365,28.3672253 49.1686055,28.7051538 49.3563436,28.9679871 C49.5440817,29.2308205 49.8444627,29.3622371 50.2387126,29.3622371 C50.6141888,29.3622371 50.895796,29.2308205 51.1210817,28.986761 C51.2524983,28.8365705 51.3275936,28.68638 51.383915,28.4986419 L52.0785459,28.4986419 C52.0597721,28.6488324 52.0034507,28.8365705 51.8908078,29.0243086 C51.778165,29.2120467 51.6655221,29.3810109 51.5341055,29.4936538 C51.3275936,29.7001657 51.0459864,29.8503562 50.7456055,29.9254514 C50.5766412,29.962999 50.3889031,29.9817728 50.1636174,29.9817728 C49.6379508,29.9817728 49.1873793,29.7940347 48.830677,29.3997848 C48.4739746,29.0243086 48.2862365,28.4798681 48.2862365,27.7852372 C48.2862365,27.1093801 48.4739746,26.5461658 48.830677,26.133142 C49.2061532,25.7013444 49.6754984,25.4948325 50.2762603,25.4948325 C50.5766412,25.4760587 50.8770221,25.5511539 51.1586293,25.7013444 Z M51.4026888,27.3534396 C51.3651412,27.0530586 51.3088198,26.7902253 51.1961769,26.621261 C51.0084388,26.2833325 50.6705103,26.1143682 50.2199388,26.1143682 C49.9007841,26.1143682 49.619177,26.227011 49.4126651,26.4710706 C49.1873793,26.7151301 49.0747365,27.015511 49.0559627,27.3722134 L51.4026888,27.3722134 L51.4026888,27.3534396 Z M53.0735578,25.5699277 L53.7869625,25.5699277 L53.7869625,26.1706896 C53.9559268,25.9641777 54.1061173,25.8139873 54.2375339,25.7201182 C54.4815935,25.5511539 54.7444268,25.4760587 55.0448077,25.4760587 C55.3827363,25.4760587 55.6455696,25.5511539 55.8520815,25.7201182 C55.9647244,25.8139873 56.0773672,25.9641777 56.1712363,26.133142 C56.3214267,25.9078563 56.5091648,25.738892 56.7344505,25.6262492 C56.9409624,25.5136063 57.1850219,25.4572849 57.4478553,25.4572849 C58.0110695,25.4572849 58.4053195,25.6637968 58.6118314,26.0768206 C58.7244743,26.3021063 58.7807957,26.6024872 58.7807957,26.9779634 L58.7807957,29.7940347 L58.0486172,29.7940347 L58.0486172,26.8465467 C58.0486172,26.5649396 57.9735219,26.3772015 57.8421053,26.2645587 C57.6919148,26.1519158 57.5229505,26.1143682 57.3164386,26.1143682 C57.0348315,26.1143682 56.790772,26.2082372 56.6030339,26.3959753 C56.396522,26.5837134 56.3026529,26.9028682 56.3026529,27.3346658 L56.3026529,29.7940347 L55.5704744,29.7940347 L55.5704744,27.0342848 C55.5704744,26.7526777 55.5329268,26.527392 55.4766053,26.3959753 C55.3639625,26.1894634 55.1574506,26.0955944 54.8758434,26.0955944 C54.6130101,26.0955944 54.3689506,26.2082372 54.1436649,26.4147491 C53.9183792,26.621261 53.8057363,26.9967372 53.8057363,27.5411777 L53.8057363,29.7940347 L53.0923316,29.7940347 L53.0923316,25.5699277 L53.0735578,25.5699277 Z M60.3014742,28.4798681 C60.320248,28.7239276 60.3765695,28.8928919 60.4892123,29.0243086 C60.6769504,29.2495943 60.9961052,29.3622371 61.4466766,29.3622371 C61.7095099,29.3622371 61.9535694,29.3059157 62.1600813,29.1932729 C62.3665932,29.08063 62.4604622,28.8928919 62.4604622,28.6676062 C62.4604622,28.4798681 62.385367,28.3484515 62.2164027,28.2545824 C62.1037599,28.198261 61.897248,28.1231657 61.596867,28.0480705 L61.014879,27.89788 C60.6394028,27.804011 60.3765695,27.710142 60.2076052,27.5974991 C59.8884504,27.409761 59.73826,27.1469277 59.73826,26.7902253 C59.73826,26.3959753 59.8884504,26.0580468 60.1700576,25.8139873 C60.4704385,25.5699277 60.8646885,25.4385111 61.3528075,25.4385111 C61.991117,25.4385111 62.4604622,25.6262492 62.7608432,26.0017253 C62.9485813,26.2457849 63.0236765,26.4898444 63.0236765,26.7714515 L62.3478194,26.7714515 C62.3290456,26.6024872 62.2727242,26.4710706 62.1788551,26.3396539 C62.0098908,26.1519158 61.7282837,26.0580468 61.3152599,26.0580468 C61.0336528,26.0580468 60.8271409,26.1143682 60.6957242,26.2082372 C60.5455337,26.3021063 60.4892123,26.4522968 60.4892123,26.621261 C60.4892123,26.8089991 60.5830814,26.9591896 60.7708194,27.0718324 C60.8834623,27.1281539 61.0336528,27.2032491 61.2401647,27.2407967 L61.7282837,27.3534396 C62.2539503,27.4848562 62.5918789,27.5974991 62.779617,27.710142 C63.0612241,27.89788 63.1926408,28.1794872 63.1926408,28.5737372 C63.1926408,28.9492133 63.0424503,29.2683681 62.7608432,29.5499752 C62.4792361,29.8315824 62.0286646,29.962999 61.4279028,29.962999 C60.7895933,29.962999 60.3390218,29.8128086 60.0761885,29.5312014 C59.8133552,29.2495943 59.6631647,28.8928919 59.6443909,28.4610943 L60.3014742,28.4610943 L60.3014742,28.4798681 Z M64.150105,28.9492133 L64.9761526,28.9492133 L64.9761526,29.8128086 L64.150105,29.8128086 L64.150105,28.9492133 Z M68.9749739,25.7952134 C69.2753549,26.0204992 69.463093,26.4335229 69.5194144,26.9967372 L68.8247835,26.9967372 C68.7872358,26.7339039 68.6933668,26.527392 68.5431763,26.3396539 C68.3929859,26.1706896 68.1489263,26.0768206 67.8109978,26.0768206 C67.3604264,26.0768206 67.0412716,26.3021063 66.8347597,26.7339039 C66.7033431,27.015511 66.6470216,27.3722134 66.6470216,27.804011 C66.6470216,28.2358086 66.7408907,28.592511 66.909855,28.8741181 C67.097593,29.1557252 67.3792002,29.3059157 67.7546764,29.3059157 C68.0550573,29.3059157 68.280343,29.2120467 68.4493073,29.0430824 C68.6182716,28.8553443 68.7496882,28.6112848 68.8060097,28.3109038 L69.5006406,28.3109038 C69.4255454,28.8741181 69.2190335,29.2871419 68.8998787,29.5499752 C68.580724,29.8128086 68.186474,29.9442252 67.6795811,29.9442252 C67.1163669,29.9442252 66.6845693,29.7377133 66.3466407,29.3434633 C66.0087121,28.9304395 65.8585217,28.4235467 65.8585217,27.8227848 C65.8585217,27.0718324 66.0462597,26.4898444 66.4029621,26.0768206 C66.7596645,25.6637968 67.2290097,25.4572849 67.792224,25.4572849 C68.2991168,25.4572849 68.674593,25.5699277 68.9749739,25.7952134 Z M73.5557833,26.0017253 C73.9312595,26.3584277 74.1189976,26.9028682 74.1189976,27.6162729 C74.1189976,28.29213 73.9500333,28.8553443 73.6308785,29.3059157 C73.29295,29.7564871 72.7860571,29.9817728 72.0914262,29.9817728 C71.5094381,29.9817728 71.0588667,29.7940347 70.7021644,29.3810109 C70.3642358,28.986761 70.1952715,28.4610943 70.1952715,27.7852372 C70.1952715,27.0718324 70.3830096,26.5086182 70.739712,26.0768206 C71.0964143,25.6637968 71.5845334,25.4385111 72.1852953,25.4385111 C72.7109619,25.4572849 73.1803071,25.6262492 73.5557833,26.0017253 Z M73.1052119,28.8177967 C73.2741762,28.4610943 73.3680452,28.0668443 73.3680452,27.6162729 C73.3680452,27.2220229 73.3117238,26.9028682 73.1803071,26.6588087 C72.9737952,26.2645587 72.6358667,26.0768206 72.1477476,26.0768206 C71.71595,26.0768206 71.3967953,26.2457849 71.2090572,26.5837134 C71.0213191,26.921642 70.9086763,27.315892 70.9086763,27.7852372 C70.9086763,28.2358086 71.0025453,28.6112848 71.2090572,28.9116657 C71.3967953,29.2120467 71.71595,29.3622371 72.1477476,29.3622371 C72.6170929,29.3622371 72.9362476,29.174499 73.1052119,28.8177967 Z M74.9074976,25.5699277 L75.6209023,25.5699277 L75.6209023,26.1706896 C75.7898666,25.9641777 75.940057,25.8139873 76.0714737,25.7201182 C76.2967594,25.5511539 76.5783665,25.4760587 76.8787475,25.4760587 C77.216676,25.4760587 77.4795094,25.5511539 77.6860213,25.7201182 C77.7986641,25.8139873 77.911307,25.9641777 78.005176,26.133142 C78.1553665,25.9078563 78.3431046,25.738892 78.5683903,25.6262492 C78.7749022,25.5136063 79.0189617,25.4572849 79.281795,25.4572849 C79.8450093,25.4572849 80.2392593,25.6637968 80.4457712,26.0768206 C80.558414,26.3021063 80.6147355,26.6024872 80.6147355,26.9779634 L80.6147355,29.7940347 L79.8825569,29.7940347 L79.8825569,26.8465467 C79.8825569,26.5649396 79.8074617,26.3772015 79.676045,26.2645587 C79.5258545,26.1519158 79.3568903,26.1143682 79.1503784,26.1143682 C78.8687712,26.1143682 78.6247117,26.2082372 78.4369736,26.3959753 C78.2304617,26.5837134 78.1365927,26.9028682 78.1365927,27.3346658 L78.1365927,29.7940347 L77.4044141,29.7940347 L77.4044141,27.0342848 C77.4044141,26.7526777 77.3668665,26.527392 77.3105451,26.3959753 C77.1979022,26.1894634 76.9913903,26.0955944 76.7097832,26.0955944 C76.4469499,26.0955944 76.2028904,26.2082372 75.9776047,26.4147491 C75.752319,26.621261 75.6396761,26.9967372 75.6396761,27.5411777 L75.6396761,29.7940347 L74.9074976,29.7940347 L74.9074976,25.5699277 Z" id="Shape"></path>
        </g>
    </g>
</svg>