<?xml version="1.0" encoding="UTF-8"?>
<svg width="88px" height="40px" viewBox="0 0 88 40" version="1.1" xmlns="http://www.w3.org/2000/svg" xmlns:xlink="http://www.w3.org/1999/xlink">
    <!-- Generator: Sketch 59.1 (86144) - https://sketch.com -->
    <title>IHG Hotels</title>
    <desc>Created with Sketch.</desc>
    <defs>
        <polygon id="path-1" points="0 45.5074416 96.2232405 45.5074416 96.2232405 0 0 0"></polygon>
    </defs>
    <g id="IHG-Hotels" stroke="none" stroke-width="1" fill="none" fill-rule="evenodd">
        <g id="IHG-ON-BLACK.ai" transform="translate(-3.000000, -3.000000)">
            <path d="M71.227086,10.783076 C70.7801381,10.783076 70.4295951,10.4587842 70.4295951,9.97675938 C70.4295951,9.49926063 70.7627128,9.16173011 71.227086,9.16173011 C71.6915723,9.16173011 72.0245768,9.49484772 72.0245768,9.97234648 C72.0245768,10.4499584 71.6783336,10.783076 71.227086,10.783076 M71.227086,9.00411026 C70.6837331,9.00411026 70.2542105,9.43781943 70.2542105,9.97675938 C70.2542105,10.5245251 70.688146,10.940809 71.227086,10.940809 C71.7704388,10.940809 72.1997351,10.5201122 72.1997351,9.97234648 C72.1997351,9.43340653 71.7791515,9.00411026 71.227086,9.00411026" id="Fill-1" fill="#121311"></path>
            <path d="M71.6411308,9.84068368 C71.6411308,9.9499656 71.5558466,10.0073621 71.3920467,10.0073621 L71.2086178,10.0073621 L71.2086178,9.67413964 L71.3920467,9.67413964 C71.5492472,9.67413964 71.6411308,9.71594367 71.6411308,9.83571021 L71.6411308,9.84068368 Z M71.9491017,9.8304679 L71.9491017,9.8252256 C71.9491017,9.59093483 71.7328452,9.48151849 71.398646,9.48151849 L70.8940475,9.48151849 L70.8940475,10.6215185 L71.2086178,10.6215185 L71.2086178,10.1791485 L71.3593882,10.1791485 L71.7066169,10.6215185 L72.0340475,10.6215185 L71.6541603,10.1376133 C71.8243904,10.0958093 71.9491017,10.0022542 71.9491017,9.8304679 L71.9491017,9.8304679 Z" id="Fill-3" fill="#121311"></path>
            <polygon id="Fill-5" fill="#121311" points="47.3741902 15.96525 38.535824 15.96525 38.535824 8.83524316 36.1090667 8.83524316 36.1090667 25.042705 38.535824 25.042705 38.535824 17.6379666 47.3741902 17.6379666 47.3741902 25.042705 49.8208621 25.042705 49.8208621 8.83524316 47.3741902 8.83524316"></polygon>
            <mask id="mask-2" fill="white">
                <use xlink:href="#path-1"></use>
            </mask>
            <g id="Clip-8"></g>
            <polygon id="Fill-7" fill="#121311" mask="url(#mask-2)" points="26.4955232 25.0427729 28.9178676 25.0427729 28.9178676 8.8351979 26.4955232 8.8351979"></polygon>
            <path d="M63.8910305,25.3120618 C66.5104845,25.3120618 68.5424567,24.3085224 69.6443247,23.9902276 L69.6443247,17.2431249 L67.1958423,17.2431249 L67.1958423,23.5249492 C66.5104845,23.9902276 65.3598483,24.3572906 64.0620022,24.3572906 C60.2675844,24.3572906 57.6721184,21.0029184 57.6721184,16.7676629 C57.6721184,12.7768143 59.9489501,9.49633 63.7440468,9.49633 C66.3635009,9.49633 67.8570989,10.7204015 68.9586274,12.0914565 L69.0811703,12.0914565 L69.0811703,9.27591115 C68.2975972,9.08015929 66.1186414,8.56588634 63.8419228,8.56588634 C58.333375,8.56588634 54.9791159,12.5810625 54.9791159,16.9880818 C54.9791159,21.8109323 58.602562,25.3120618 63.8910305,25.3120618" id="Fill-9" fill="#121311" mask="url(#mask-2)"></path>
            <polygon id="Fill-10" fill="#121311" mask="url(#mask-2)" points="12.7282158 34.2400778 9.3316382 34.2400778 9.3316382 32.2380907 8.75524515 32.2380907 8.75524515 36.669777 9.3316382 36.669777 9.3316382 34.7049036 12.7282158 34.7049036 12.7282158 36.669777 13.3046089 36.669777 13.3046089 32.2380907 12.7282158 32.2380907"></polygon>
            <path d="M19.8178616,34.4632575 C19.8178616,35.5292565 18.9377703,36.2731136 17.5245098,36.2731136 C16.1485892,36.2731136 15.1940443,35.5417032 15.1940443,34.475591 L15.1940443,34.4260307 C15.1940443,33.3785886 16.0307986,32.622398 17.5059529,32.622398 C18.9687738,32.622398 19.8178616,33.4281489 19.8178616,34.4135841 L19.8178616,34.4632575 Z M17.5059529,32.1823524 C15.739547,32.1823524 14.5928711,33.1740109 14.5928711,34.4322541 L14.5928711,34.4818144 C14.5928711,35.7213875 15.739547,36.7254927 17.5245098,36.7254927 C19.272472,36.7254927 20.4190348,35.7213875 20.4190348,34.4694809 L20.4190348,34.4198074 C20.4190348,33.1740109 19.272472,32.1823524 17.5059529,32.1823524 L17.5059529,32.1823524 Z" id="Fill-11" fill="#121311" mask="url(#mask-2)"></path>
            <polygon id="Fill-12" fill="#121311" mask="url(#mask-2)" points="20.9635757 32.6843823 22.7858784 32.6843823 22.7858784 36.6696865 23.3622715 36.6696865 23.3622715 32.6843823 25.184461 32.6843823 25.184461 32.2381133 20.9635757 32.2381133"></polygon>
            <polygon id="Fill-13" fill="#121311" mask="url(#mask-2)" points="26.9130744 34.6243624 29.5720183 34.6243624 29.5720183 34.1780935 26.9130744 34.1780935 26.9130744 32.6843823 30.0678476 32.6843823 30.0678476 32.2381133 26.3365682 32.2381133 26.3365682 36.6696865 30.2166416 36.6696865 30.2166416 36.2234175 26.9130744 36.2234175"></polygon>
            <polygon id="Fill-14" fill="#121311" mask="url(#mask-2)" points="31.9947248 32.2380794 31.4182186 32.2380794 31.4182186 36.6697657 34.8519098 36.6697657 34.8519098 36.2234967 31.9947248 36.2234967"></polygon>
            <path d="M37.9131747,34.1222872 C36.6734884,33.9798296 36.3823499,33.7503587 36.3823499,33.3537632 C36.3823499,32.9074942 36.7851688,32.6223527 37.7210437,32.6223527 C38.5825782,32.6223527 39.066074,32.8269304 39.2024213,33.4033235 L39.7292541,33.4033235 C39.6114635,32.5914624 38.8739429,32.1823071 37.7210437,32.1823071 C36.555811,32.1823071 35.8430705,32.6843597 35.8430705,33.3662098 C35.8430705,34.159514 36.5248075,34.4507656 37.7458238,34.5933363 C38.96073,34.7359071 39.3511022,34.9032579 39.3511022,35.4238673 C39.3511022,35.9631467 38.8181593,36.2854018 37.8698377,36.2854018 C36.685935,36.2854018 36.2706695,35.8640262 36.1776591,35.3185234 L35.6137127,35.3185234 C35.7252799,36.0994941 36.3823499,36.7254475 37.8698377,36.7254475 C39.1527479,36.7254475 39.9090516,36.1739477 39.9090516,35.4053105 C39.9090516,34.5313294 39.2147548,34.2710813 37.9131747,34.1222872" id="Fill-15" fill="#121311" mask="url(#mask-2)"></path>
            <path d="M51.3291245,34.4383982 L51.3291245,32.6782156 L52.8972893,32.6782156 C53.5976962,32.6782156 54.0996356,32.9136836 54.0996356,33.5458602 L54.0996356,33.5707535 C54.0996356,34.1346999 53.6348098,34.4383982 52.8972893,34.4383982 L51.3291245,34.4383982 Z M54.6761418,33.5645302 L54.6761418,33.5397501 C54.6761418,32.603762 53.8456108,32.2380568 52.8600625,32.2380568 L50.7527315,32.2380568 L50.7527315,36.6697431 L51.3291245,36.6697431 L51.3291245,34.8723337 L52.7484952,34.8723337 L54.3352168,36.6697431 L55.0294004,36.6697431 L53.4055652,34.8288835 C54.0252952,34.7173163 54.6761418,34.3330543 54.6761418,33.5645302 L54.6761418,33.5645302 Z" id="Fill-16" fill="#121311" mask="url(#mask-2)"></path>
            <polygon id="Fill-17" fill="#121311" mask="url(#mask-2)" points="56.74542 34.6243624 59.4043639 34.6243624 59.4043639 34.1780935 56.74542 34.1780935 56.74542 32.6843823 59.9001932 32.6843823 59.9001932 32.2381133 56.169027 32.2381133 56.169027 36.6696865 60.0489872 36.6696865 60.0489872 36.2234175 56.74542 36.2234175"></polygon>
            <path d="M63.2030023,34.1222872 C61.9633159,33.9798296 61.6720643,33.7503587 61.6720643,33.3537632 C61.6720643,32.9074942 62.0749963,32.6223527 63.0108713,32.6223527 C63.8724057,32.6223527 64.3559015,32.8269304 64.4922489,33.4033235 L65.0190817,33.4033235 C64.9012911,32.5914624 64.1637705,32.1823071 63.0108713,32.1823071 C61.8456385,32.1823071 61.1328981,32.6843597 61.1328981,33.3662098 C61.1328981,34.159514 61.8146351,34.4507656 63.0356514,34.5933363 C64.2504445,34.7359071 64.6409298,34.9032579 64.6409298,35.4238673 C64.6409298,35.9631467 64.1079869,36.2854018 63.1595522,36.2854018 C61.9757626,36.2854018 61.5604971,35.8640262 61.4675998,35.3185234 L60.9035403,35.3185234 C61.0151075,36.0994941 61.6720643,36.7254475 63.1595522,36.7254475 C64.4425755,36.7254475 65.1988792,36.1739477 65.1988792,35.4053105 C65.1988792,34.5313294 64.5045824,34.2710813 63.2030023,34.1222872" id="Fill-18" fill="#121311" mask="url(#mask-2)"></path>
            <path d="M71.414657,34.4632575 C71.414657,35.5292565 70.5345657,36.2731136 69.1214183,36.2731136 C67.7453846,36.2731136 66.7909528,35.5417032 66.7909528,34.475591 L66.7909528,34.4260307 C66.7909528,33.3785886 67.6277071,32.622398 69.1028615,32.622398 C70.5655691,32.622398 71.414657,33.4281489 71.414657,34.4135841 L71.414657,34.4632575 Z M69.1028615,32.1823524 C67.3363424,32.1823524 66.1896665,33.1740109 66.1896665,34.4322541 L66.1896665,34.4818144 C66.1896665,35.7213875 67.3363424,36.7254927 69.1214183,36.7254927 C70.8692674,36.7254927 72.0159433,35.7213875 72.0159433,34.4694809 L72.0159433,34.4198074 C72.0159433,33.1740109 70.8692674,32.1823524 69.1028615,32.1823524 L69.1028615,32.1823524 Z" id="Fill-19" fill="#121311" mask="url(#mask-2)"></path>
            <path d="M73.9051977,34.4383982 L73.9051977,32.6782156 L75.4732493,32.6782156 C76.1736562,32.6782156 76.6757088,32.9136836 76.6757088,33.5458602 L76.6757088,33.5707535 C76.6757088,34.1346999 76.210883,34.4383982 75.4732493,34.4383982 L73.9051977,34.4383982 Z M77.252215,33.5645302 L77.252215,33.5397501 C77.252215,32.603762 76.4215709,32.2380568 75.4361356,32.2380568 L73.3288046,32.2380568 L73.3288046,36.6697431 L73.9051977,36.6697431 L73.9051977,34.8723337 L75.3245684,34.8723337 L76.91129,36.6697431 L77.6054736,36.6697431 L75.9815252,34.8288835 C76.6013684,34.7173163 77.252215,34.3330543 77.252215,33.5645302 L77.252215,33.5645302 Z" id="Fill-20" fill="#121311" mask="url(#mask-2)"></path>
            <polygon id="Fill-21" fill="#121311" mask="url(#mask-2)" points="78.1872752 32.6843823 80.0094648 32.6843823 80.0094648 36.6696865 80.585971 36.6696865 80.585971 32.6843823 82.4081606 32.6843823 82.4081606 32.2381133 78.1872752 32.2381133"></polygon>
            <path d="M85.3887938,34.1222872 C84.1492206,33.9798296 83.857969,33.7503587 83.857969,33.3537632 C83.857969,32.9074942 84.2607878,32.6223527 85.1966628,32.6223527 C86.0583104,32.6223527 86.541693,32.8269304 86.6780404,33.4033235 L87.2048731,33.4033235 C87.0871957,32.5914624 86.349562,32.1823071 85.1966628,32.1823071 C84.03143,32.1823071 83.3186896,32.6843597 83.3186896,33.3662098 C83.3186896,34.159514 84.0004265,34.4507656 85.2214429,34.5933363 C86.4363491,34.7359071 86.8267213,34.9032579 86.8267213,35.4238673 C86.8267213,35.9631467 86.2937784,36.2854018 85.3454568,36.2854018 C84.1616672,36.2854018 83.7462886,35.8640262 83.6533913,35.3185234 L83.0893318,35.3185234 C83.200899,36.0994941 83.857969,36.7254475 85.3454568,36.7254475 C86.6284801,36.7254475 87.3846707,36.1739477 87.3846707,35.4053105 C87.3846707,34.5313294 86.6904871,34.2710813 85.3887938,34.1222872" id="Fill-22" fill="#121311" mask="url(#mask-2)"></path>
            <path d="M44.7266293,36.2852547 C44.0721618,36.2852547 43.7152824,35.9816696 43.7152824,35.498287 C43.7152824,34.9715674 44.0993182,34.6803158 44.6238879,34.4881848 L45.9002353,35.7957619 C45.6352348,36.0807902 45.2457678,36.2852547 44.7266293,36.2852547 L44.7266293,36.2852547 Z M44.2939385,33.2488379 C44.2939385,32.8089054 44.6077072,32.5857709 45.0024923,32.5857709 C45.4297519,32.5857709 45.6731405,32.8522424 45.6731405,33.1930543 C45.6731405,33.5463128 45.4406144,33.8190076 44.8186214,34.0854791 C44.5211464,33.8437878 44.2939385,33.5835396 44.2939385,33.2488379 L44.2939385,33.2488379 Z M47.3605668,34.3828409 L46.884539,34.3828409 L46.1868477,35.4301699 L45.110665,34.3395039 C45.7867444,34.0730324 46.1328745,33.6454334 46.1328745,33.2055009 C46.1328745,32.6106642 45.6838898,32.1768419 45.0132417,32.1768419 C44.3859306,32.1768419 43.8287732,32.5609908 43.8287732,33.2427277 C43.8287732,33.6578801 44.0235067,33.9676885 44.3156636,34.2279366 C43.753075,34.4386245 43.2068934,34.8228865 43.2068934,35.5292905 C43.2068934,36.2729212 43.8072745,36.7128537 44.7157668,36.7128537 C45.3593717,36.7128537 45.8353995,36.4278254 46.1599176,36.0622334 L46.7493231,36.6695168 L47.4037906,36.6695168 L46.4734601,35.7214215 L47.3605668,34.3828409 Z" id="Fill-23" fill="#121311" mask="url(#mask-2)"></path>
        </g>
    </g>
</svg>